<?xml version="1.0" encoding="UTF-8" standalone="no"?>
<!-- Created with Inkscape (http://www.inkscape.org/) -->

<svg
   width="300"
   height="160"
   viewBox="0 0 79.374998 42.333333"
   version="1.1"
   id="svg939"
   class="gb-clr streamer"
   inkscape:version="1.1.2 (0a00cf5339, 2022-02-04)"
   sodipodi:docname="gb-clr-streamer.svg"
   xmlns:inkscape="http://www.inkscape.org/namespaces/inkscape"
   xmlns:sodipodi="http://sodipodi.sourceforge.net/DTD/sodipodi-0.dtd"
   xmlns="http://www.w3.org/2000/svg"
   xmlns:svg="http://www.w3.org/2000/svg"
   xmlns:rdf="http://www.w3.org/1999/02/22-rdf-syntax-ns#"
   xmlns:cc="http://creativecommons.org/ns#"
   xmlns:dc="http://purl.org/dc/elements/1.1/">
  <defs
     id="defs933" />
  <sodipodi:namedview
     id="base"
     pagecolor="#ffffff"
     bordercolor="#666666"
     borderopacity="1.0"
     inkscape:pageopacity="0.0"
     inkscape:pageshadow="2"
     inkscape:zoom="7.9195965"
     inkscape:cx="117.80903"
     inkscape:cy="93.375969"
     inkscape:document-units="mm"
     inkscape:current-layer="g1463"
     showgrid="false"
     inkscape:window-width="3840"
     inkscape:window-height="2070"
     inkscape:window-x="0"
     inkscape:window-y="44"
     inkscape:window-maximized="1"
     showguides="false"
     units="px"
     inkscape:pagecheckerboard="0"
     inkscape:snap-grids="false"
     inkscape:snap-global="true"
     inkscape:snap-to-guides="true">
    <inkscape:grid
       type="xygrid"
       id="grid59191" />
  </sodipodi:namedview>
  <metadata
     id="metadata936">
    <rdf:RDF>
      <cc:Work
         rdf:about="">
        <dc:format>image/svg+xml</dc:format>
        <dc:type
           rdf:resource="http://purl.org/dc/dcmitype/StillImage" />
      </cc:Work>
    </rdf:RDF>
  </metadata>
  <g
     id="layer2"
     inkscape:label="Layer 2"
     style="opacity:1"
     transform="translate(0,-270.54167)">
    <g
       id="g1463"
       transform="translate(-10.654145,-43.194306)"
       inkscape:label="allButtons"
       class="streamer">
      <g
         id="g1175"
         inkscape:label="dPad"
         transform="translate(0,-14.287503)">
        <ellipse
           style="color:#000000;display:inline;overflow:visible;opacity:0.452991;fill:#a8a4a8;fill-opacity:1;fill-rule:evenodd;stroke:none;stroke-width:0.856192;stroke-linecap:square;stroke-miterlimit:4;stroke-dasharray:none;stroke-opacity:1;stop-color:#000000"
           id="path49231"
           cx="26.854923"
           cy="341.63574"
           rx="2.8230958"
           ry="2.8760707"
           inkscape:label="dCenterIndent" />
        <path
           style="color:#000000;font-variation-settings:normal;display:inline;overflow:visible;vector-effect:none;fill:none;fill-opacity:1;fill-rule:evenodd;stroke:#726c72;stroke-width:0.79375;stroke-linecap:square;stroke-linejoin:miter;stroke-miterlimit:4;stroke-dasharray:none;stroke-dashoffset:0;stroke-opacity:1;-inkscape-stroke:none;stop-color:#000000"
           d="m 26.042018,348.43071 h 1.5875 l -0.79375,1.01995 z"
           id="path78940"
           sodipodi:nodetypes="cccc"
           inkscape:label="dDown"
           ojd-button="DOWN"
           class="button direction" />
        <path
           style="color:#000000;display:inline;overflow:visible;fill:#a8a4a8;fill-opacity:1;fill-rule:evenodd;stroke:#777177;stroke-width:0.79375;stroke-linecap:square;stroke-miterlimit:4;stroke-dasharray:none;stroke-opacity:1;stop-color:#000000"
           d="m 27.629518,334.63399 h -1.5875 l 0.79375,-1.01995 z"
           id="path78940-1"
           sodipodi:nodetypes="cccc"
           inkscape:label="dUp"
           ojd-button="UP"
           class="button direction" />
        <path
           id="rect49086"
           class="button"
           style="display:inline;overflow:visible;fill:none;fill-rule:evenodd;stroke:#726c72;stroke-width:0.5;stroke-linecap:square;stroke-miterlimit:4;stroke-dasharray:none;stroke-opacity:1;stop-color:#000000"
           inkscape:label="dOutline"
           d="m 30.633884,345.40667 -0.04403,5.35001 c -0.0073,0.88301 -0.710895,1.59393 -1.593936,1.59393 h -4.311421 c -0.88304,0 -1.595901,-0.71089 -1.593936,-1.59393 l 0.0119,-5.35001 m -0.0198,-7.49929 0.0079,-5.35003 c 0.0013,-0.88304 0.710896,-1.59393 1.593936,-1.59393 h 4.311421 c 0.883041,0 1.58464,0.72625 1.58464,1.60929 v 5.33467 m 0,0 h 5.359311 c 0.88304,0 1.593936,0.71089 1.593936,1.59393 v 4.31142 c 0,0.88304 -0.710896,1.59394 -1.593936,1.59394 h -5.305982 m -7.531422,0 H 17.74054 c -0.88304,0 -1.593936,-0.7109 -1.593936,-1.59394 v -4.31142 c 0,-0.88304 0.710896,-1.59393 1.593936,-1.59393 h 5.34212" />
        <path
           style="color:#000000;display:inline;overflow:visible;fill:#a8a4a8;fill-opacity:1;fill-rule:evenodd;stroke:#777177;stroke-width:0.79375;stroke-linecap:square;stroke-miterlimit:4;stroke-dasharray:none;stroke-opacity:1;stop-color:#000000"
           d="m 33.734128,342.57543 v -1.5875 l 1.019947,0.79375 z"
           id="path78940-1-9"
           sodipodi:nodetypes="cccc"
           inkscape:label="dRight"
           ojd-button="RIGHT"
           class="button direction" />
        <path
           style="color:#000000;display:inline;overflow:visible;fill:#a8a4a8;fill-opacity:1;fill-rule:evenodd;stroke:#777177;stroke-width:0.79375;stroke-linecap:square;stroke-miterlimit:4;stroke-dasharray:none;stroke-opacity:1;stop-color:#000000"
           d="m 20.066505,342.57543 v -1.5875 l -1.019948,0.79375 z"
           id="path78940-1-9-4"
           sodipodi:nodetypes="cccc"
           inkscape:label="dLeft"
           ojd-button="LEFT"
           class="button direction" />
      </g>
      <g
         id="g1200"
         inkscape:label="actionButtons"
         sodipodi:insensitive="true"
         transform="translate(0,-13.758336)">
        <g
           id="g1190"
           inkscape:label="bButton"
           ojd-button="B">
          <ellipse
             style="color:#000000;display:inline;overflow:visible;fill:none;fill-opacity:1;fill-rule:evenodd;stroke:#726c72;stroke-width:0.5;stroke-linecap:square;stroke-miterlimit:4;stroke-dasharray:none;stroke-opacity:1;stop-color:#000000"
             id="path25587-2"
             cx="65.517151"
             cy="344.55692"
             rx="4.4891047"
             ry="4.6378279"
             inkscape:label="bButtonOutline"
             class="button" />
          <g
             aria-label="B"
             transform="scale(1.0988823,0.91001557)"
             id="text113928"
             style="font-size:6.48406px;line-height:10.1313px;font-family:'Futura Condensed';-inkscape-font-specification:'Futura Condensed, ';letter-spacing:0px;word-spacing:0px;display:inline;fill:#726c72;stroke:#726c72;stroke-width:0.15197px"
             inkscape:label="bText"
             class="label">
            <path
               d="m 60.634754,379.77374 q 0,0.69558 -0.181456,0.99196 -0.272186,0.44154 -1.058499,0.44154 h -0.786313 v -5.15942 h 0.737924 q 0.653245,0 0.925431,0.31453 0.247991,0.29033 0.247991,0.95567 0,0.40525 -0.09678,0.67139 -0.114923,0.32057 -0.38106,0.48388 l -0.108874,0.0665 0.120971,0.0605 q 0.344768,0.16936 0.477837,0.48994 0.102825,0.24194 0.102825,0.68349 z m -0.604856,-2.39524 q 0,-0.53227 -0.133068,-0.68953 -0.151214,-0.18146 -0.665342,-0.18146 h -0.133069 v 1.77223 h 0.272186 q 0.411302,0 0.54437,-0.20565 0.114923,-0.17541 0.114923,-0.69559 z m 0.102826,2.41338 q 0,-0.6351 -0.247991,-0.85889 -0.217749,-0.19356 -0.659294,-0.19356 h -0.12702 v 2.00812 h 0.145166 q 0.604856,0 0.780265,-0.27823 0.108874,-0.16936 0.108874,-0.67744 z"
               id="path912"
               inkscape:label="bTextPath" />
          </g>
        </g>
        <g
           id="g1185"
           inkscape:label="aButton"
           sodipodi:insensitive="true"
           ojd-button="A">
          <ellipse
             style="color:#000000;display:inline;overflow:visible;fill:none;fill-opacity:1;fill-rule:evenodd;stroke:#726c72;stroke-width:0.5;stroke-linecap:square;stroke-miterlimit:4;stroke-dasharray:none;stroke-opacity:1;stop-color:#000000"
             id="path25587-9-9"
             cx="80.06324"
             cy="340.05954"
             rx="4.4891047"
             ry="4.6378279"
             inkscape:label="aButtonOutline"
             class="button" />
          <g
             aria-label="A"
             transform="scale(1.1412681,0.87621831)"
             id="text106690"
             style="font-size:6.49198px;line-height:10.1436px;font-family:'Futura Condensed';-inkscape-font-specification:'Futura Condensed, ';letter-spacing:0px;word-spacing:0px;display:inline;fill:#726c72;stroke:#726c72;stroke-width:0.173891px"
             inkscape:label="aText"
             class="label">
            <path
               d="m 71.412428,390.68198 h -0.538979 l -0.181679,-1.06585 h -1.084015 l -0.181679,1.06585 h -0.532924 l 1.029512,-5.16573 h 0.454197 z m -0.793329,-1.48977 -0.484477,-3.00375 -0.436028,3.00375 z"
               id="path934"
               inkscape:label="aTextPath" />
          </g>
        </g>
      </g>
      <g
         id="g857"
         inkscape:label="start"
         ojd-button="START">
        <rect
           style="fill:none;fill-opacity:1;stroke:#726c72;stroke-width:0.364106;stroke-opacity:1"
           id="rect1279-3"
           width="6.6358943"
           height="2.1358938"
           x="55.167744"
           y="344.76611"
           ry="1.0679469" 
           class="button"/>
        <g
           aria-label="START"
           id="text6291"
           class="label"
           style="font-weight:500;font-size:3.88056px;line-height:1.25;font-family:'ITC Avant Garde Gothic';-inkscape-font-specification:'ITC Avant Garde Gothic Medium';fill:#726c72;stroke-width:0.264583"
           transform="translate(-0.13356567)">
          <path
             d="m 53.661842,351.03233 c 0,0.64029 0.48895,0.90417 0.884767,0.90417 0.527756,0 0.880887,-0.36865 0.880887,-0.86925 0,-0.69074 -0.519995,-0.80327 -0.880887,-0.93909 -0.124178,-0.0466 -0.384175,-0.1203 -0.384175,-0.39582 0,-0.16686 0.135819,-0.39194 0.384175,-0.39194 0.170745,0 0.403578,0.097 0.403578,0.41522 h 0.419101 c 0,-0.48507 -0.34537,-0.79939 -0.822679,-0.79939 -0.543278,0 -0.803276,0.44626 -0.803276,0.77999 0,0.20179 0.06209,0.41134 0.194028,0.5394 0.131939,0.12806 0.225073,0.17463 0.609248,0.32209 0.197909,0.0776 0.461787,0.14746 0.461787,0.46954 0,0.30269 -0.197909,0.48507 -0.461787,0.48507 -0.422981,0 -0.465667,-0.42298 -0.465667,-0.51999 z"
             id="path46169" />
          <path
             d="m 56.525697,351.88217 v -2.48744 h 0.551039 v -0.38417 h -1.521179 v 0.38417 h 0.551039 v 2.48744 z"
             id="path46171" />
          <path
             d="m 59.618503,351.88217 -1.090438,-2.87161 h -0.376414 l -1.090437,2.87161 h 0.442384 l 0.318206,-0.84596 h 1.032228 l 0.318206,0.84596 z m -1.649238,-1.23014 0.368653,-1.09819 h 0.0078 l 0.364773,1.09819 z"
             id="path46173" />
          <path
             d="m 61.8149,351.88217 -0.803276,-1.07103 c 0.186267,0 0.822679,-0.1203 0.822679,-0.88089 0,-0.24059 -0.08149,-0.50447 -0.263878,-0.6791 -0.151342,-0.14358 -0.360893,-0.24059 -0.764471,-0.24059 h -0.888648 v 2.87161 h 0.4191 v -1.33103 h 0.0078 l 0.946856,1.33103 z m -1.478494,-2.48744 h 0.442384 c 0.473429,0 0.636412,0.29493 0.636412,0.53552 0,0.55492 -0.620889,0.56268 -0.791634,0.56268 h -0.287162 z"
             id="path46175" />
          <path
             d="m 63.025632,351.88217 v -2.48744 h 0.551039 v -0.38417 h -1.521179 v 0.38417 h 0.551039 v 2.48744 z"
             id="path46177" />
        </g>
      </g>
      <g
         id="g862">
        <g
           id="g1003"
           inkscape:label="select"
           ojd-button="SELECT">
          <rect
             style="opacity:1;fill:none;fill-opacity:1;stroke:#726c72;stroke-width:0.364106;stroke-opacity:1"
             id="rect1279"
             width="6.6358943"
             height="2.1358936"
             x="38.152428"
             y="344.76617"
             ry="1.0679468" 
             class="button"/>
          <g
             aria-label="SELECT"
             id="text50776"
             class="label"
             style="font-size:3.88056px;line-height:2.05;fill:#726c72;stroke-width:0.264583">
            <path
               d="m 35.366252,351.03233 c 0,0.64029 0.488951,0.90417 0.884768,0.90417 0.527756,0 0.880887,-0.36865 0.880887,-0.86925 0,-0.69074 -0.519995,-0.80327 -0.880887,-0.93909 -0.124178,-0.0466 -0.384176,-0.1203 -0.384176,-0.39582 0,-0.16686 0.13582,-0.39194 0.384176,-0.39194 0.170744,0 0.403578,0.097 0.403578,0.41522 h 0.4191 c 0,-0.48507 -0.345369,-0.79939 -0.822678,-0.79939 -0.543279,0 -0.803276,0.44626 -0.803276,0.77999 0,0.20179 0.06209,0.41134 0.194028,0.5394 0.131939,0.12806 0.225072,0.17463 0.609248,0.32209 0.197908,0.0776 0.461786,0.14746 0.461786,0.46954 0,0.30269 -0.197908,0.48507 -0.461786,0.48507 -0.422981,0 -0.465667,-0.42298 -0.465667,-0.51999 z"
               style="font-family:'ITC Avant Garde Gothic';-inkscape-font-specification:'ITC Avant Garde Gothic'"
               id="path883" />
            <path
               d="M 39.033383,351.88217 V 351.498 H 37.90414 v -0.87313 h 1.129243 v -0.38418 H 37.90414 v -0.84596 h 1.129243 v -0.38417 H 37.48504 v 2.87161 z"
               style="font-family:'ITC Avant Garde Gothic';-inkscape-font-specification:'ITC Avant Garde Gothic'"
               id="path885" />
            <path
               d="M 40.973665,351.88217 V 351.498 h -0.997304 v -2.48744 H 39.55726 v 2.87161 z"
               style="font-family:'ITC Avant Garde Gothic';-inkscape-font-specification:'ITC Avant Garde Gothic'"
               id="path887" />
            <path
               d="M 42.774246,351.88217 V 351.498 h -1.129243 v -0.87313 h 1.129243 v -0.38418 h -1.129243 v -0.84596 h 1.129243 v -0.38417 h -1.548344 v 2.87161 z"
               style="font-family:'ITC Avant Garde Gothic';-inkscape-font-specification:'ITC Avant Garde Gothic'"
               id="path889" />
            <path
               d="m 45.936904,349.74398 c -0.07373,-0.12806 -0.182387,-0.32208 -0.442384,-0.50835 -0.310445,-0.22507 -0.659695,-0.2794 -0.877007,-0.2794 -0.803276,0 -1.478493,0.64029 -1.478493,1.47849 0,0.81492 0.659695,1.50178 1.474613,1.50178 0.446264,0 0.985662,-0.20179 1.303868,-0.76447 h -0.516115 c -0.197908,0.23283 -0.481189,0.38029 -0.783873,0.38029 -0.562681,0 -1.059393,-0.49671 -1.059393,-1.11372 0,-0.60536 0.469548,-1.0982 1.067154,-1.0982 0.465667,0 0.721784,0.30657 0.807157,0.40358 z"
               style="font-family:'ITC Avant Garde Gothic';-inkscape-font-specification:'ITC Avant Garde Gothic'"
               id="path891" />
            <path
               d="m 47.023458,351.88217 v -2.48744 h 0.55104 v -0.38417 h -1.52118 v 0.38417 h 0.55104 v 2.48744 z"
               style="font-family:'ITC Avant Garde Gothic';-inkscape-font-specification:'ITC Avant Garde Gothic'"
               id="path893" />
          </g>
        </g>
      </g>
    </g>
  </g>
</svg>
